<svg xmlns="http://www.w3.org/2000/svg" width="900" height="540" viewBox="0 0 900 540">
  <defs>
    <linearGradient id="g" x1="0" x2="1">
      <stop offset="0" stop-color="#ff3ea5"/>
      <stop offset="1" stop-color="#ffd1ea"/>
    </linearGradient>
    <filter id="glow" x="-25%" y="-25%" width="150%" height="150%">
      <feGaussianBlur stdDeviation="10" result="b"/>
      <feMerge><feMergeNode in="b"/><feMergeNode in="SourceGraphic"/></feMerge>
    </filter>
  </defs>
  <rect width="900" height="540" rx="32" fill="rgba(255,255,255,0.04)"/>
  <g filter="url(#glow)" opacity="0.9">
    <rect x="90" y="140" width="280" height="300" rx="24" fill="rgba(10,5,8,0.9)" stroke="url(#g)" stroke-width="3"/>
    <rect x="410" y="140" width="400" height="140" rx="24" fill="rgba(10,5,8,0.9)" stroke="url(#g)" stroke-width="3"/>
    <rect x="410" y="300" width="400" height="140" rx="24" fill="rgba(10,5,8,0.9)" stroke="url(#g)" stroke-width="3"/>
    <g fill="rgba(255,62,165,0.9)">
      <circle cx="140" cy="200" r="7"/><circle cx="170" cy="200" r="7"/><circle cx="200" cy="200" r="7"/>
      <rect x="130" y="240" width="200" height="18" rx="9"/>
      <rect x="130" y="270" width="160" height="18" rx="9" opacity="0.8"/>
      <rect x="130" y="300" width="190" height="18" rx="9" opacity="0.6"/>
      <rect x="450" y="190" width="320" height="20" rx="10" opacity="0.85"/>
      <rect x="450" y="350" width="280" height="20" rx="10" opacity="0.85"/>
    </g>
  </g>
  <text x="56" y="86" fill="rgba(255,255,255,0.9)" font-family="-apple-system,BlinkMacSystemFont,Segoe UI,Inter,sans-serif" font-size="28">UX/UI · DESIGN SYSTEMS</text>
</svg>
